<?xml version="1.0" encoding="UTF-8"?>
<svg width="32px" height="32px" viewBox="0 0 32 32" version="1.1" xmlns="http://www.w3.org/2000/svg" xmlns:xlink="http://www.w3.org/1999/xlink">
    <!-- Generator: Sketch 52.1 (67048) - http://www.bohemiancoding.com/sketch -->
    <title>默认</title>
    <desc>Created with Sketch.</desc>
    <g id="Page-1" stroke="none" stroke-width="1" fill="none" fill-rule="evenodd">
        <g id="帮扶结对管理-copy" transform="translate(-1868.000000, -24.000000)">
            <g id="默认" transform="translate(1868.000000, 24.000000)">
                <g id="admin头像">
                    <path d="M16.0000549,0 C24.8365191,0 32,7.16347264 32,16 C32,24.836564 24.8365192,32 16.0000549,32 C7.1634808,32 -3.57741923e-08,24.8366006 0,16 C0,7.16347264 7.16344421,3.57741516e-08 16.0000549,0 Z" id="路径" fill="#EEEEEE"></path>
                    <path d="M23.3330091,30.3855624 C21.199473,31.4186344 18.8024895,32 16.2678645,32 C13.1429257,32 10.2276756,31.1159868 7.75757576,29.5904729 C10.6126516,28.8597563 13.37223,29.1544031 13.9995259,27.8708539 C15.4701851,25.0026789 14.7352242,23.9143676 12.6672825,23.5449357 C9.8557152,22.796902 9.10113865,21.5874439 9.45381519,14.5488394 C10.1501347,10.8199599 9.60152269,3.7163615 18.2828954,5.00202957 C27.1376014,6.31392904 24.4877896,13.8135926 20.7789159,22.8734773 C18.8756427,27.5229771 21.7158224,29.6106397 23.3330091,30.3855624 Z" id="路径" fill="#FFFFFF"></path>
                </g>
            </g>
        </g>
    </g>
</svg>