<?xml version="1.0" encoding="UTF-8"?>
<svg width="60px" height="60px" viewBox="0 0 60 60" version="1.1" xmlns="http://www.w3.org/2000/svg" xmlns:xlink="http://www.w3.org/1999/xlink">
    <!-- Generator: Sketch 52.1 (67048) - http://www.bohemiancoding.com/sketch -->
    <title>默认</title>
    <desc>Created with Sketch.</desc>
    <g id="Page-1" stroke="none" stroke-width="1" fill="none" fill-rule="evenodd">
        <g id="默认">
            <g id="admin头像">
                <path d="M30.0001029,0 C46.5684734,0 60,13.4315112 60,30 C60,46.5685575 46.5684735,60 30.0001029,60 C13.4315265,60 -6.70766106e-08,46.5686261 0,30 C0,13.4315112 13.4314579,6.70765343e-08 30.0001029,0 Z" id="路径" fill="#EEEEEE"></path>
                <path d="M42.6272289,56.9263592 C38.6847727,58.8931693 34.2555051,60 29.5718966,60 C23.7974764,60 18.4105294,58.3169748 13.8461538,55.4126311 C19.1219076,54.0214592 24.2211965,54.5824212 25.3803456,52.1387411 C28.0979042,46.6781772 26.7398063,44.6061998 22.9185588,43.9028584 C17.7232022,42.4787173 16.3288574,40.1760951 16.980551,26.7756751 C18.2672454,19.6764622 17.2534924,6.15230362 33.2953729,8.60001784 C49.6575474,11.0976726 44.7610909,25.3758782 37.9076461,42.6245048 C34.3906813,51.4764372 39.6389093,55.4510255 42.6272289,56.9263592 Z" id="路径" fill="#FFFFFF"></path>
            </g>
        </g>
    </g>
</svg>