<?xml version="1.0" encoding="UTF-8"?>
<svg width="16px" height="16px" viewBox="0 0 16 16" version="1.1" xmlns="http://www.w3.org/2000/svg" xmlns:xlink="http://www.w3.org/1999/xlink">
    <!-- Generator: Sketch 52.1 (67048) - http://www.bohemiancoding.com/sketch -->
    <title>统计</title>
    <desc>Created with Sketch.</desc>
    <g id="Page-1" stroke="none" stroke-width="1" fill="none" fill-rule="evenodd">
        <g id="帮扶措施分析" transform="translate(-102.000000, -129.000000)" fill="#B6B6B6" fill-rule="nonzero">
            <g id="Group" transform="translate(82.000000, 100.000000)">
                <g id="统计" transform="translate(20.000000, 29.000000)">
                    <path d="M0,7.96136727 L1.5023363,7.11111111 L1.72773165,7.11111111 L7.88725335,10.589334 L8.11269767,10.589334 L14.272301,7.11111111 L14.497631,7.11111111 L16,7.96136727 L8.1878349,12.4444444 L7.96239057,12.4444444 L0,7.96136727 Z M0.110061125,4.25122453 L7.44547649,0 L7.66563063,0 L15.0010619,4.25120773 C15.1477942,4.32852258 15.1477942,4.56034951 15.0010619,4.63766436 L7.66563063,8.88888889 L7.44547649,8.88888889 L0.110061125,4.63768116 C-0.0366870418,4.48306827 -0.0366870418,4.32853938 0.110061125,4.25122453 Z M8.07549166,14.1448896 L14.2641511,10.6666667 L14.4905277,10.6666667 L16,11.5168556 L8.15096692,16 L7.92445913,16 L0,11.5168556 L1.50942313,10.6666667 L1.73588171,10.6666667 L7.92445913,14.1448896 C7.92445913,14.2221886 8.07549166,14.2221886 8.07549166,14.1448896 Z" id="Shape"></path>
                </g>
            </g>
        </g>
    </g>
</svg>