<?xml version="1.0" encoding="UTF-8"?>
<svg width="200px" height="144px" viewBox="0 0 200 144" version="1.1" xmlns="http://www.w3.org/2000/svg" xmlns:xlink="http://www.w3.org/1999/xlink">
    <!-- Generator: Sketch 52.1 (67048) - http://www.bohemiancoding.com/sketch -->
    <title>暂无消息</title>
    <desc>Created with Sketch.</desc>
    <defs>
        <linearGradient x1="50%" y1="3.30111994%" x2="50%" y2="100%" id="linearGradient-1">
            <stop stop-color="#E3E3E3" offset="0%"></stop>
            <stop stop-color="#C1C1C1" offset="100%"></stop>
        </linearGradient>
        <linearGradient x1="50%" y1="3.30111994%" x2="50%" y2="100%" id="linearGradient-2">
            <stop stop-color="#E3E3E3" offset="0%"></stop>
            <stop stop-color="#D8D8D8" offset="100%"></stop>
        </linearGradient>
        <linearGradient x1="50%" y1="3.30111994%" x2="50%" y2="100%" id="linearGradient-3">
            <stop stop-color="#DEDEDE" offset="0%"></stop>
            <stop stop-color="#A6A6A6" offset="100%"></stop>
        </linearGradient>
    </defs>
    <g id="Page-1" stroke="none" stroke-width="1" fill="none" fill-rule="evenodd">
        <g id="帮扶结对管理-copy" transform="translate(-991.000000, -423.000000)">
            <g id="暂无消息" transform="translate(991.000000, 423.000000)">
                <path d="M155.78125,65.2148438 C157.011719,65.2148438 158.027344,66.2304688 158.027344,67.4609375 C158.027344,68.6914063 157.011719,69.7070313 155.78125,69.7070313 C154.550781,69.7070313 153.535156,68.6914063 153.535156,67.4609375 C153.535156,66.2304688 154.53125,65.2148438 155.78125,65.2148438 Z M155.78125,63.4179688 C153.554687,63.4179688 151.738281,65.234375 151.738281,67.4609375 C151.738281,69.6875 153.554687,71.5039063 155.78125,71.5039063 C158.007812,71.5039063 159.824219,69.6875 159.824219,67.4609375 C159.824219,65.234375 158.027344,63.4179688 155.78125,63.4179688 Z M87.1679688,139.238281 C88.1640625,139.238281 88.9648438,140.058594 88.9648438,141.035156 C88.9648438,142.03125 88.1640625,142.832031 87.1679688,142.832031 C86.171875,142.832031 85.3710938,142.03125 85.3710938,141.035156 C85.3710938,140.058594 86.1914062,139.238281 87.1679688,139.238281 Z M87.1679688,138.339844 C85.6835938,138.339844 84.4726562,139.550781 84.4726562,141.035156 C84.4726562,142.519531 85.6835938,143.730469 87.1679688,143.730469 C88.6523438,143.730469 89.8632812,142.519531 89.8632812,141.035156 C89.8828125,139.550781 88.6523438,138.339844 87.1679688,138.339844 Z M196.269531,140.585937 C196.269531,141.582031 197.070312,142.382812 198.066406,142.382812 C199.0625,142.382812 199.863281,141.582031 199.863281,140.585937 C199.863281,139.589844 199.0625,138.789062 198.066406,138.789062 C197.070312,138.789062 196.269531,139.589844 196.269531,140.585937 Z M48.0664062,10.2929688 L46.25,16.3476562 L44.3554688,10.2929688 L38.8867188,8.26171875 L44.3554688,6.171875 L46.171875,0.13671875 L48.046875,6.171875 L53.515625,8.203125 L48.0664062,10.2929688 Z M5.09765625,110.761719 L4.08203125,114.140625 L3.046875,110.761719 L0,109.628906 L3.046875,108.496094 L4.04296875,105.117188 L5.09765625,108.496094 L8.10546875,109.628906 L5.09765625,110.761719 Z" id="形状" fill="url(#linearGradient-1)" fill-rule="nonzero"></path>
                <g id="暂无已退出订单" transform="translate(50.000000, 29.000000)">
                    <path d="M82,22 L60,0 L60,20.7777778 C60,21.3888889 60.6111111,22 61.2222222,22 L82,22 Z" id="路径" fill="url(#linearGradient-1)"></path>
                    <path d="M61.0457903,59.4974227 L20.9542097,59.4974227 C19.5007386,59.4974227 18.2895125,58.273196 18.2895125,56.8041237 C18.2895125,55.3350515 19.5007385,54.1108247 20.9542097,54.1108247 L62.7415066,54.1108247 C64.0738553,54.1108247 65.042836,55.0902062 65.2850812,56.314433 C69.1610044,53.9884021 73.6425406,52.6417526 78.4874446,52.6417526 C79.6986705,52.6417526 80.9098966,52.7641752 82,52.886598 L82,27.5451031 L61.1669128,27.5451031 C57.6543574,27.5451031 54.7474151,24.6069587 54.7474151,21.0567011 L54.7474151,0 L5.20827179,0 C2.30132936,0 0,2.32603089 0,5.26417527 L0,89.7358247 C0,92.6739691 2.30132936,95 5.20827179,95 L57.5332349,95 C54.2629246,90.5927835 52.3249631,85.0837628 52.3249631,79.2074742 C52.3249631,71.3724227 55.7163958,64.2719071 61.0457903,59.4974227 Z M20.9542097,38.318299 L62.7415066,38.318299 C64.1949778,38.318299 65.4062039,39.5425258 65.4062038,41.0115979 C65.4062038,42.4806701 64.1949778,43.7048969 62.7415066,43.7048969 L20.9542097,43.7048969 C19.5007386,43.7048969 18.2895125,42.4806702 18.2895125,41.0115979 C18.2895125,39.5425258 19.5007385,38.3182989 20.9542097,38.318299 Z" id="形状" fill="url(#linearGradient-2)" fill-rule="nonzero"></path>
                    <path d="M79,58 C67.468208,58 58,67.3468208 58,79 C58,90.5317919 67.3468208,100 79,100 C90.6531792,99.8786128 100,90.5317919 100,78.8786127 C100,67.3468207 90.6531792,57.9999999 79,58 Z M79,91.9884393 C77.5433526,91.9884393 76.3294797,90.7745665 76.3294798,89.317919 C76.3294798,87.8612717 77.5433526,86.6473988 79,86.6473989 C80.4566473,86.6473989 81.6705202,87.8612717 81.6705202,89.317919 C81.6705202,90.8959538 80.4566474,91.9884393 79,91.9884393 Z M79,84.0982659 C77.5433526,84.0982659 76.3294797,69.7745664 76.3294798,68.4393064 C76.3294799,67.1040463 77.5433526,65.7687861 79,65.7687861 C80.4566473,65.7687861 81.6705202,66.9826589 81.6705202,68.4393064 C81.6705202,69.8959538 80.4566474,84.0982659 79,84.0982659 Z" id="形状" fill="url(#linearGradient-3)" fill-rule="nonzero"></path>
                </g>
            </g>
        </g>
    </g>
</svg>